<svg width="400" height="400" viewBox="0 0 400 400" fill="none" xmlns="http://www.w3.org/2000/svg">
<rect width="400" height="400" fill="#131415"/>
<path fill-rule="evenodd" clip-rule="evenodd" d="M27.1097 161.44L93.7487 276.644C126.126 330.32 197.708 286.302 165.803 231.699L155.165 213.657C146.69 196.81 171.775 180.402 184.049 200.729L231.203 281.502C259.131 325.871 332.429 287.224 304.493 238.467L290.839 214.92C285.953 205.141 289.018 197.407 297.934 189.432C306.182 182.054 312.558 179.868 322.644 184.662C346.202 195.857 398.628 169.794 371.206 122.093C349.457 84.2607 282.676 107.529 297.934 160.433C303.409 179.417 274.435 185.615 267.48 174.206L238.115 124.792C217.785 79.4186 141.324 101.335 159.902 157.473C161.472 162.218 166.125 170.427 156.725 177.226C151.967 180.668 139.733 186.502 132.998 174.912L99.42 117.034C99.42 117.034 77.3611 86.3853 42.0266 105.793C6.22115 125.46 27.1097 161.44 27.1097 161.44Z" fill="#F8FCFE"/>
</svg>
